<svg xmlns="http://www.w3.org/2000/svg" width="22" height="23" fill="none"><defs><linearGradient id="a" x1=".191" x2=".809" y1="0" y2="1"><stop offset="0" stop-color="#D5AE61"/><stop offset="1" stop-color="#765B2B"/></linearGradient></defs><path fill="url(#a)" d="m20.125 9.356.723.827a2 2 0 0 1 0 2.634l-.723.827a1.997 1.997 0 0 0-.486 1.5l.1 1.091a1.999 1.999 0 0 1-1.548 2.133l-1.062.241a2.003 2.003 0 0 0-1.278.931l-.556.939a2 2 0 0 1-2.509.818l-.994-.427a2.002 2.002 0 0 0-1.583.002l-.992.429a2 2 0 0 1-2.515-.816l-.553-.935a2.003 2.003 0 0 0-1.278-.931l-1.062-.241a2 2 0 0 1-1.549-2.133l.102-1.101a2.001 2.001 0 0 0-.487-1.5l-.726-.83a2 2 0 0 1-.002-2.63l.731-.839a2 2 0 0 0 .484-1.497L2.261 6.75a2 2 0 0 1 1.554-2.135l1.052-.236a2.002 2.002 0 0 0 1.283-.932l.554-.936a2.002 2.002 0 0 1 2.51-.818l.997.428a2.002 2.002 0 0 0 1.578 0l.994-.427c.925-.397 2-.045 2.512.821l.557.943c.279.474.742.811 1.279.933l1.06.241a2 2 0 0 1 1.548 2.134l-.1 1.09a1.997 1.997 0 0 0 .486 1.5ZM6 13.109l2.38 2.4c.4.39 1.03.39 1.44 0l5.919-5.94a.996.996 0 0 0 0-1.41l-.07-.07c-.39-.39-1.03-.39-1.42 0L9.1 13.249l-1.61-1.62c-.39-.39-1.03-.39-1.42 0l-.07.07a.996.996 0 0 0 0 1.41Z"/></svg>